<?xml version="1.0" encoding="utf-8"?>
<!-- Generator: Adobe Illustrator 28.2.0, SVG Export Plug-In . SVG Version: 6.00 Build 0)  -->
<svg version="1.1" id="Layer_1" xmlns="http://www.w3.org/2000/svg" xmlns:xlink="http://www.w3.org/1999/xlink" x="0px" y="0px"
	 viewBox="0 0 1920 1080" style="enable-background:new 0 0 1920 1080;" xml:space="preserve">
<style type="text/css">
	.st0{fill:none;stroke:#C3956B;stroke-width:3;stroke-miterlimit:10;}
	.st1{fill:#C3956B;}
</style>
<g>
	<path class="st0" d="M104.92,99.37c0,13.95-10.96,25.24-24.51,25.24c-13.9,0-25-11.29-25-25.24c0-14.02,11.1-25.31,25-25.31
		C93.96,74.06,104.92,85.35,104.92,99.37z"/>
	<path class="st1" d="M145.69,121.76h-33.03V75.17h10.06v37.64h22.98V121.76z"/>
	<path class="st1" d="M152.74,121.76V75.17h9.99v46.58H152.74z"/>
	<path class="st1" d="M201.83,75.17h11.31l-17.95,46.58h-9.36l-17.39-46.58h11.31l11.1,30.66L201.83,75.17z"/>
	<path class="st1" d="M218.87,121.76V75.17h9.99v46.58H218.87z"/>
	<path class="st1" d="M263.63,111.7h-14.6l-3.63,10.06h-10.82l16.83-46.58h9.85l16.83,46.58h-10.82L263.63,111.7z M256.3,88.79
		l-4.89,15.01h9.85L256.3,88.79z"/>
</g>
</svg>
