<?xml version="1.0" encoding="utf-8"?>
<!-- Generator: Adobe Illustrator 28.2.0, SVG Export Plug-In . SVG Version: 6.00 Build 0)  -->
<svg version="1.1" id="Layer_1" xmlns="http://www.w3.org/2000/svg" xmlns:xlink="http://www.w3.org/1999/xlink" x="0px" y="0px"
	 viewBox="0 0 1920 1080" style="enable-background:new 0 0 1920 1080;" xml:space="preserve">
<style type="text/css">
	.st0{fill:none;stroke:#C3956B;stroke-width:23.1363;stroke-miterlimit:10;}
	.st1{fill:#C3956B;}
</style>
<path class="st0" d="M483.2,540.3c0,107.6-84.5,194.7-189,194.7c-107.2,0-192.8-87.1-192.8-194.7c0-108.1,85.6-195.2,192.8-195.2
	C398.6,345.1,483.2,432.1,483.2,540.3z"/>
<path class="st1" d="M797.6,712.9H542.9V353.6h77.6v290.3h177.2L797.6,712.9L797.6,712.9z"/>
<path class="st1" d="M852,712.9V353.6h77v359.2L852,712.9L852,712.9z"/>
<path class="st1" d="M1230.5,353.6h87.2l-138.4,359.2h-72.2L973,353.6h87.2l85.6,236.5L1230.5,353.6z"/>
<path class="st1" d="M1362,712.9V353.6h77v359.2L1362,712.9L1362,712.9z"/>
<path class="st1" d="M1707.1,635.4h-112.6l-28,77.6h-83.4l129.8-359.2h76l129.8,359.2h-83.4L1707.1,635.4z M1650.6,458.7
	l-37.7,115.8h76L1650.6,458.7z"/>
</svg>
