<?xml version="1.0" encoding="utf-8"?>
<!-- Generator: Adobe Illustrator 28.2.0, SVG Export Plug-In . SVG Version: 6.00 Build 0)  -->
<svg version="1.1" id="Layer_1" xmlns="http://www.w3.org/2000/svg" xmlns:xlink="http://www.w3.org/1999/xlink" x="0px" y="0px"
	 viewBox="0 0 1920 485.3" style="enable-background:new 0 0 1920 485.3;" xml:space="preserve">
<style type="text/css">
	.st0{fill:none;stroke:#C3956B;stroke-width:26;stroke-miterlimit:10;}
	.st1{fill:#C3956B;}
</style>
<path class="st0" d="M438.7,243c0,117.6-92.4,212.8-206.6,212.8c-117.2,0-210.8-95.2-210.8-212.8c0-118.2,93.6-213.4,210.8-213.4
	C346.3,29.6,438.7,124.8,438.7,243z"/>
<path class="st1" d="M782.5,431.7H504V38.9h84.8v317.3h193.7L782.5,431.7L782.5,431.7z"/>
<path class="st1" d="M841.9,431.7V38.9h84.2v392.7L841.9,431.7L841.9,431.7z"/>
<path class="st1" d="M1255.7,38.9h95.4l-151.3,392.7h-78.9L974.2,38.9h95.4l93.6,258.5L1255.7,38.9z"/>
<path class="st1" d="M1399.4,431.7V38.9h84.2v392.7L1399.4,431.7L1399.4,431.7z"/>
<path class="st1" d="M1776.8,346.9h-123.1l-30.6,84.8h-91.2L1673.7,39h83l141.9,392.7h-91.2L1776.8,346.9z M1715,153.8l-41.2,126.5
	h83L1715,153.8z"/>
</svg>
