<?xml version="1.0" encoding="UTF-8"?>
<svg xmlns="http://www.w3.org/2000/svg" xmlns:xlink="http://www.w3.org/1999/xlink" viewBox="0 0 1920 1080">
  <defs>
    <style>
      .cls-1 {
        fill: url(#radial-gradient-16);
      }

      .cls-1, .cls-2, .cls-3, .cls-4, .cls-5, .cls-6, .cls-7, .cls-8, .cls-9, .cls-10, .cls-11, .cls-12, .cls-13, .cls-14, .cls-15, .cls-16, .cls-17, .cls-18, .cls-19, .cls-20, .cls-21, .cls-22, .cls-23 {
        stroke-width: 0px;
      }

      .cls-1, .cls-2, .cls-3, .cls-5, .cls-6, .cls-7, .cls-9, .cls-10, .cls-12, .cls-15, .cls-16, .cls-17, .cls-18, .cls-19, .cls-20, .cls-24, .cls-21, .cls-22, .cls-23 {
        mix-blend-mode: overlay;
      }

      .cls-2 {
        fill: url(#radial-gradient-15);
      }

      .cls-3 {
        fill: url(#radial-gradient-4);
      }

      .cls-4 {
        fill: #000102;
      }

      .cls-25 {
        stroke: url(#linear-gradient-12);
        stroke-width: .25px;
      }

      .cls-25, .cls-26, .cls-27, .cls-28, .cls-29, .cls-30, .cls-31, .cls-32, .cls-33, .cls-34, .cls-35, .cls-36 {
        fill: none;
        stroke-miterlimit: 10;
      }

      .cls-5 {
        fill: url(#radial-gradient-9);
      }

      .cls-26 {
        stroke: url(#linear-gradient-7);
        stroke-width: .59px;
      }

      .cls-6 {
        fill: url(#radial-gradient-17);
      }

      .cls-37 {
        isolation: isolate;
      }

      .cls-7 {
        fill: url(#radial-gradient-18);
      }

      .cls-8 {
        fill: url(#linear-gradient-15);
      }

      .cls-9 {
        fill: url(#radial-gradient-14);
      }

      .cls-27 {
        stroke: url(#linear-gradient-8);
        stroke-width: .52px;
      }

      .cls-28 {
        stroke: url(#linear-gradient-4);
        stroke-width: .8px;
      }

      .cls-29 {
        stroke: url(#linear-gradient-9);
        stroke-width: .45px;
      }

      .cls-10 {
        fill: url(#radial-gradient-10);
      }

      .cls-11 {
        fill: url(#linear-gradient-13);
      }

      .cls-12 {
        fill: url(#radial-gradient-2);
      }

      .cls-13 {
        fill: url(#linear-gradient-16);
      }

      .cls-30 {
        stroke: url(#linear-gradient-3);
        stroke-width: .86px;
      }

      .cls-14 {
        fill: url(#linear-gradient-14);
      }

      .cls-15 {
        fill: url(#radial-gradient-11);
      }

      .cls-16 {
        fill: url(#radial-gradient-12);
      }

      .cls-31 {
        stroke: url(#linear-gradient-11);
        stroke-width: .32px;
      }

      .cls-17 {
        fill: url(#radial-gradient);
      }

      .cls-18 {
        fill: url(#radial-gradient-13);
      }

      .cls-32 {
        stroke: url(#linear-gradient);
      }

      .cls-19 {
        fill: url(#radial-gradient-6);
      }

      .cls-20 {
        fill: url(#radial-gradient-3);
      }

      .cls-33 {
        stroke: url(#linear-gradient-6);
        stroke-width: .66px;
      }

      .cls-21 {
        fill: url(#radial-gradient-8);
      }

      .cls-34 {
        stroke: url(#linear-gradient-10);
        stroke-width: .39px;
      }

      .cls-35 {
        stroke: url(#linear-gradient-2);
        stroke-width: .93px;
      }

      .cls-36 {
        stroke: url(#linear-gradient-5);
        stroke-width: .73px;
      }

      .cls-22 {
        fill: url(#radial-gradient-5);
      }

      .cls-23 {
        fill: url(#radial-gradient-7);
      }
    </style>
    <linearGradient id="linear-gradient" x1="839.26" y1="784.36" x2="1080.74" y2="784.36" gradientTransform="translate(1920) rotate(-180) scale(1 -1)" gradientUnits="userSpaceOnUse">
      <stop offset="0" stop-color="#d1ae19"/>
      <stop offset=".25" stop-color="#ffee4d"/>
      <stop offset=".5" stop-color="#e8c723"/>
      <stop offset=".75" stop-color="#f9e442"/>
      <stop offset=".95" stop-color="#d1ae19"/>
    </linearGradient>
    <linearGradient id="linear-gradient-2" x1="778.16" y1="792.07" x2="1141.84" y2="792.07" xlink:href="#linear-gradient"/>
    <linearGradient id="linear-gradient-3" x1="717.06" y1="799.79" x2="1202.94" y2="799.79" xlink:href="#linear-gradient"/>
    <linearGradient id="linear-gradient-4" x1="655.96" y1="807.51" x2="1264.04" y2="807.51" xlink:href="#linear-gradient"/>
    <linearGradient id="linear-gradient-5" x1="594.86" y1="815.22" x2="1325.14" y2="815.22" xlink:href="#linear-gradient"/>
    <linearGradient id="linear-gradient-6" x1="533.76" y1="822.94" x2="1386.24" y2="822.94" xlink:href="#linear-gradient"/>
    <linearGradient id="linear-gradient-7" x1="472.66" y1="830.65" x2="1447.34" y2="830.65" xlink:href="#linear-gradient"/>
    <linearGradient id="linear-gradient-8" x1="411.56" y1="838.37" x2="1508.44" y2="838.37" xlink:href="#linear-gradient"/>
    <linearGradient id="linear-gradient-9" x1="350.46" y1="846.08" x2="1569.54" y2="846.08" xlink:href="#linear-gradient"/>
    <linearGradient id="linear-gradient-10" x1="289.36" y1="853.8" x2="1630.64" y2="853.8" xlink:href="#linear-gradient"/>
    <linearGradient id="linear-gradient-11" x1="228.26" y1="861.51" x2="1691.74" y2="861.51" xlink:href="#linear-gradient"/>
    <linearGradient id="linear-gradient-12" x1="167.16" y1="869.23" x2="1752.84" y2="869.23" xlink:href="#linear-gradient"/>
    <radialGradient id="radial-gradient" cx="490.98" cy="911.53" fx="490.98" fy="911.53" r="48.8" gradientTransform="translate(1920 154.99) rotate(-180) scale(1 -.7)" gradientUnits="userSpaceOnUse">
      <stop offset="0" stop-color="#fff" stop-opacity=".9"/>
      <stop offset=".07" stop-color="#fcffff" stop-opacity=".72"/>
      <stop offset=".14" stop-color="#fbffff" stop-opacity=".55"/>
      <stop offset=".22" stop-color="#f9ffff" stop-opacity=".4"/>
      <stop offset=".31" stop-color="#f8ffff" stop-opacity=".28"/>
      <stop offset=".4" stop-color="#f6ffff" stop-opacity=".18"/>
      <stop offset=".5" stop-color="#f6ffff" stop-opacity=".1"/>
      <stop offset=".61" stop-color="#f5ffff" stop-opacity=".04"/>
      <stop offset=".76" stop-color="#f5ffff" stop-opacity="0"/>
      <stop offset="1" stop-color="#f5ffff" stop-opacity="0"/>
    </radialGradient>
    <radialGradient id="radial-gradient-2" cx="2682.37" cy="729.72" fx="2682.37" fy="729.72" r="70.94" gradientTransform="translate(1226.34 212.81) rotate(144.9) scale(.14 -.81) skewX(-64)" xlink:href="#radial-gradient"/>
    <radialGradient id="radial-gradient-3" cx="2085.16" cy="76.7" fx="2085.16" fy="76.7" r="70.93" gradientTransform="translate(1126.65 659.43) rotate(35.1) scale(.15 -.81) skewX(63.57)" xlink:href="#radial-gradient"/>
    <radialGradient id="radial-gradient-4" cx="145.49" cy="835.34" fx="145.49" fy="835.34" r="31.64" gradientTransform="translate(2122.57 452.85) rotate(-144.9) scale(.86 -.81) skewX(18.71)" xlink:href="#radial-gradient"/>
    <radialGradient id="radial-gradient-5" cx="880.5" cy="920.05" fx="880.5" fy="920.05" r="46" gradientTransform="translate(1574.39 149.01) rotate(-180) scale(.17 -.7)" xlink:href="#radial-gradient"/>
    <radialGradient id="radial-gradient-6" cx="3222.29" cy="374.91" fx="3222.29" fy="374.91" r="46" gradientTransform="translate(1054.11 414.75) rotate(90) scale(.12 -1)" xlink:href="#radial-gradient"/>
    <radialGradient id="radial-gradient-7" cx="1126.66" cy="984" fx="1126.66" fy="984" r="62.77" xlink:href="#radial-gradient"/>
    <radialGradient id="radial-gradient-8" cx="5713.8" cy="331.46" fx="5713.8" fy="331.46" r="91.25" gradientTransform="translate(1226.34 212.81) rotate(144.9) scale(.14 -.81) skewX(-64)" xlink:href="#radial-gradient"/>
    <radialGradient id="radial-gradient-9" cx="-281.25" cy="-424.04" fx="-281.25" fy="-424.04" r="91.24" gradientTransform="translate(1126.65 659.43) rotate(35.1) scale(.15 -.81) skewX(63.57)" xlink:href="#radial-gradient"/>
    <radialGradient id="radial-gradient-10" cx="543.75" cy="1336.08" fx="543.75" fy="1336.08" r="40.69" gradientTransform="translate(2122.57 452.85) rotate(-144.9) scale(.86 -.81) skewX(18.71)" xlink:href="#radial-gradient"/>
    <radialGradient id="radial-gradient-11" cx="4730.74" cy="992.51" fx="4730.74" fy="992.51" r="59.16" gradientTransform="translate(1574.39 149.01) rotate(-180) scale(.17 -.7)" xlink:href="#radial-gradient"/>
    <radialGradient id="radial-gradient-12" cx="3653.13" cy="-260.76" fx="3653.13" fy="-260.76" r="59.16" gradientTransform="translate(1054.11 414.75) rotate(90) scale(.12 -1)" xlink:href="#radial-gradient"/>
    <radialGradient id="radial-gradient-13" cx="725.82" cy="1046.77" fx="725.82" fy="1046.77" r="42.25" xlink:href="#radial-gradient"/>
    <radialGradient id="radial-gradient-14" cx="4266.59" cy="659.28" fx="4266.59" fy="659.28" r="61.41" gradientTransform="translate(1226.34 212.81) rotate(144.9) scale(.14 -.81) skewX(-64)" xlink:href="#radial-gradient"/>
    <radialGradient id="radial-gradient-15" cx="1666.64" cy="-184.98" fx="1666.64" fy="-184.98" r="61.41" gradientTransform="translate(1126.65 659.43) rotate(35.1) scale(.15 -.81) skewX(63.57)" xlink:href="#radial-gradient"/>
    <radialGradient id="radial-gradient-16" cx="215.93" cy="1097.03" fx="215.93" fy="1097.03" r="27.39" gradientTransform="translate(2122.57 452.85) rotate(-144.9) scale(.86 -.81) skewX(18.71)" xlink:href="#radial-gradient"/>
    <radialGradient id="radial-gradient-17" cx="2302.92" cy="1055.28" fx="2302.92" fy="1055.28" r="39.82" gradientTransform="translate(1574.39 149.01) rotate(-180) scale(.17 -.7)" xlink:href="#radial-gradient"/>
    <radialGradient id="radial-gradient-18" cx="4026.27" cy="140.07" fx="4026.27" fy="140.07" r="39.82" gradientTransform="translate(1054.11 414.75) rotate(90) scale(.12 -1)" xlink:href="#radial-gradient"/>
    <linearGradient id="linear-gradient-13" x1="544.33" y1="591.98" x2="1302.33" y2="369.19" gradientUnits="userSpaceOnUse">
      <stop offset="0" stop-color="#9b7231"/>
      <stop offset="1" stop-color="#f1d9a0"/>
    </linearGradient>
    <linearGradient id="linear-gradient-14" x1="503.32" y1="452.44" x2="1261.32" y2="229.64" xlink:href="#linear-gradient-13"/>
    <linearGradient id="linear-gradient-15" x1="475.52" y1="357.85" x2="1233.52" y2="135.06" xlink:href="#linear-gradient-13"/>
    <linearGradient id="linear-gradient-16" x1="571.12" y1="683.13" x2="1329.13" y2="460.34" gradientUnits="userSpaceOnUse">
      <stop offset="0" stop-color="#9b7231"/>
      <stop offset=".25" stop-color="#b18c4d"/>
      <stop offset="1" stop-color="#f1d9a0"/>
    </linearGradient>
  </defs>
  <g class="cls-37">
    <g id="Layer_1" data-name="Layer 1">
      <g>
        <g>
          <g>
            <ellipse class="cls-32" cx="960" cy="784.36" rx="120.24" ry="31.97"/>
            <ellipse class="cls-35" cx="960" cy="792.07" rx="181.38" ry="48.23"/>
            <ellipse class="cls-30" cx="960" cy="799.79" rx="242.51" ry="64.48"/>
            <ellipse class="cls-28" cx="960" cy="807.51" rx="303.64" ry="80.73"/>
            <ellipse class="cls-36" cx="960" cy="815.22" rx="364.78" ry="96.99"/>
            <ellipse class="cls-33" cx="960" cy="822.94" rx="425.91" ry="113.24"/>
            <ellipse class="cls-26" cx="960" cy="830.65" rx="487.05" ry="129.5"/>
            <ellipse class="cls-27" cx="960" cy="838.37" rx="548.18" ry="145.75"/>
            <ellipse class="cls-29" cx="960" cy="846.08" rx="609.31" ry="162.01"/>
            <ellipse class="cls-34" cx="960" cy="853.8" rx="670.45" ry="178.26"/>
            <ellipse class="cls-31" cx="960" cy="861.51" rx="731.58" ry="194.52"/>
            <ellipse class="cls-25" cx="960" cy="869.23" rx="792.71" ry="210.77"/>
          </g>
          <g>
            <g class="cls-24">
              <path class="cls-17" d="M1380.22,795.72c0,18.94,21.85,34.3,48.8,34.3s48.8-15.36,48.8-34.3c0-18.94-21.85-34.3-48.8-34.3s-48.8,15.35-48.8,34.3Z"/>
              <path class="cls-12" d="M1420.73,801.55c27.71,19.47,53.87,32.65,58.45,29.44,4.57-3.21-14.18-21.61-41.88-41.08-27.71-19.47-53.87-32.65-58.45-29.44-4.58,3.22,14.18,21.61,41.88,41.08Z"/>
              <path class="cls-20" d="M1437.46,801.66c27.71-19.48,46.38-37.92,41.73-41.19-4.66-3.28-30.9,9.86-58.6,29.33-27.7,19.47-46.38,37.91-41.72,41.19,4.66,3.28,30.9-9.86,58.6-29.33Z"/>
            </g>
            <g class="cls-24">
              <path class="cls-3" d="M1406.65,780c-12.35,8.69-12.35,22.77,0,31.45,12.35,8.69,32.39,8.69,44.74,0,12.35-8.68,12.35-22.76,0-31.45-12.35-8.69-32.38-8.69-44.74,0Z"/>
              <path class="cls-22" d="M1421.43,795.72c0,17.85,3.4,32.33,7.59,32.33,4.19,0,7.6-14.47,7.6-32.33,0-17.85-3.4-32.33-7.6-32.33-4.19,0-7.59,14.48-7.59,32.33Z"/>
              <path class="cls-19" d="M1429.02,801.17c25.4,0,45.99-2.44,45.99-5.44,0-3-20.59-5.44-45.99-5.44s-45.99,2.44-45.99,5.44c0,3,20.59,5.44,45.99,5.44Z"/>
            </g>
          </g>
          <g>
            <g class="cls-24">
              <path class="cls-23" d="M730.57,846.66c0,24.37,28.11,44.12,62.77,44.12,34.66,0,62.76-19.75,62.76-44.12s-28.1-44.12-62.76-44.12c-34.67,0-62.77,19.75-62.77,44.12Z"/>
              <path class="cls-21" d="M782.69,854.15c35.64,25.05,69.3,42,75.19,37.86,5.88-4.13-18.24-27.8-53.87-52.84-35.64-25.05-69.29-42-75.19-37.86-5.89,4.14,18.24,27.79,53.87,52.84Z"/>
              <path class="cls-5" d="M804.2,854.3c35.64-25.05,59.66-48.77,53.67-52.99-6-4.21-39.75,12.68-75.38,37.73-35.63,25.05-59.66,48.77-53.67,52.99,6,4.21,39.74-12.68,75.39-37.72Z"/>
            </g>
            <g class="cls-24">
              <path class="cls-10" d="M764.57,826.43c-15.89,11.17-15.89,29.28,0,40.45,15.89,11.17,41.66,11.17,57.55,0,15.89-11.17,15.89-29.28,0-40.45-15.89-11.18-41.66-11.18-57.55,0Z"/>
              <path class="cls-15" d="M783.58,846.66c0,22.97,4.38,41.58,9.77,41.58s9.77-18.62,9.77-41.58c0-22.96-4.37-41.58-9.77-41.58-5.39,0-9.77,18.62-9.77,41.58Z"/>
              <path class="cls-16" d="M793.35,853.66c32.67,0,59.16-3.13,59.16-7,0-3.86-26.49-6.99-59.16-6.99s-59.16,3.13-59.16,6.99,26.48,7,59.16,7Z"/>
            </g>
          </g>
          <g>
            <g class="cls-24">
              <path class="cls-18" d="M1151.93,890.78c0,16.4,18.92,29.7,42.25,29.7,23.33,0,42.24-13.29,42.24-29.7s-18.92-29.69-42.24-29.69c-23.33,0-42.25,13.29-42.25,29.69Z"/>
              <path class="cls-9" d="M1187.01,895.82c23.98,16.86,46.64,28.27,50.6,25.48,3.96-2.78-12.28-18.71-36.26-35.57-23.99-16.86-46.63-28.27-50.6-25.48-3.96,2.79,12.27,18.71,36.26,35.57Z"/>
              <path class="cls-2" d="M1201.49,895.92c23.99-16.86,40.16-32.83,36.12-35.67-4.04-2.83-26.75,8.53-50.74,25.39-23.99,16.86-40.16,32.82-36.12,35.66,4.04,2.83,26.75-8.53,50.74-25.39Z"/>
            </g>
            <g class="cls-24">
              <path class="cls-1" d="M1174.81,877.17c-10.69,7.52-10.69,19.71,0,27.23,10.7,7.52,28.04,7.52,38.73,0,10.7-7.52,10.7-19.71,0-27.22-10.69-7.52-28.04-7.52-38.73,0Z"/>
              <path class="cls-6" d="M1187.61,890.78c0,15.46,2.94,27.99,6.57,27.99s6.57-12.53,6.57-27.99c0-15.45-2.94-27.99-6.57-27.99-3.63,0-6.57,12.53-6.57,27.99Z"/>
              <path class="cls-7" d="M1194.18,895.49c21.99,0,39.81-2.11,39.81-4.71s-17.82-4.71-39.81-4.71-39.81,2.11-39.81,4.71c0,2.6,17.82,4.71,39.81,4.71Z"/>
            </g>
          </g>
        </g>
        <g>
          <polygon class="cls-11" points="1217.58 505.37 1304.2 394.1 1217.58 282.82 1130.95 394.1 1217.58 505.37"/>
          <polygon class="cls-14" points="701.8 282.82 615.18 394.1 701.8 505.37 788.43 394.1 701.8 282.82"/>
          <ellipse class="cls-4" cx="958.97" cy="783.75" rx="42.54" ry="3.61"/>
          <g>
            <polygon class="cls-8" points="827.57 392.25 959.69 222.54 1091.8 392.25 1178.43 280.98 959.69 0 740.95 280.98 827.57 392.25"/>
            <polygon class="cls-13" points="1091.8 392.21 959.69 561.92 827.57 392.21 740.95 503.49 959.69 784.47 1178.43 503.49 1091.8 392.21"/>
          </g>
        </g>
      </g>
    </g>
  </g>
</svg>