<?xml version="1.0" encoding="utf-8"?>
<!-- Generator: Adobe Illustrator 28.2.0, SVG Export Plug-In . SVG Version: 6.00 Build 0)  -->
<svg version="1.1" id="Layer_1" xmlns="http://www.w3.org/2000/svg" xmlns:xlink="http://www.w3.org/1999/xlink" x="0px" y="0px"
	 viewBox="0 0 1080 1080" style="enable-background:new 0 0 1080 1080;" xml:space="preserve">
<style type="text/css">
	.st0{fill:#E3A062;}
	.st1{fill:#FFFFFF;}
</style>
<g>
	<circle class="st0" cx="540" cy="540" r="540"/>
	<g>
		<g>
			<g>
				<g>
					<polygon id="XMLID_00000054245341019186080560000015767309859596332945_" class="st1" points="792.7,644.3 877.6,535.2 
						792.7,426.2 707.8,535.2 					"/>
					<polygon id="XMLID_00000091729635831739000380000002942199723193377931_" class="st1" points="287.3,426.2 202.4,535.2 
						287.3,644.3 372.2,535.2 					"/>
					<g>
						<polygon id="XMLID_00000054262822474525360960000017592343541944371614_" class="st1" points="410.5,533.4 540,367.1 
							669.5,533.4 754.4,424.4 540,149 325.6,424.4 						"/>
						<polygon id="XMLID_00000026139554029661364230000012569997339126555521_" class="st1" points="669.5,533.4 540,699.7 
							410.5,533.4 325.6,642.4 540,917.8 754.4,642.4 						"/>
					</g>
				</g>
			</g>
		</g>
		<polygon class="st1" points="540,149 540,367.1 669.5,533.4 754.4,424.4 		"/>
		<polygon class="st1" points="540,699.7 669.5,533.4 754.4,642.4 540,917.8 		"/>
		<polygon class="st1" points="792.7,426.2 792.7,644.3 877.6,535.2 		"/>
		<polygon class="st1" points="287.3,426.2 287.3,644.3 372.2,535.2 		"/>
	</g>
</g>
</svg>
