<?xml version="1.0" encoding="utf-8"?>
<!-- Generator: Adobe Illustrator 28.2.0, SVG Export Plug-In . SVG Version: 6.00 Build 0)  -->
<svg version="1.1" id="Layer_1" xmlns="http://www.w3.org/2000/svg" xmlns:xlink="http://www.w3.org/1999/xlink" x="0px" y="0px"
	 viewBox="0 0 1080 1080" style="enable-background:new 0 0 1080 1080;" xml:space="preserve">
<style type="text/css">
	.st0{fill:#949AA7;}
</style>
<g>
	<circle class="st0" cx="540" cy="540" r="540"/>
	<g>
		<path d="M308.7,259.6c18.6,0,37.3,0.1,55.9-0.1c10.1-0.1,18.2,3.3,25.4,10.6c26.7,27.1,53.7,53.9,80.7,80.8
			c41,40.9,97,41.1,138.1,0.4c27-26.8,54-53.7,80.7-80.8c7.5-7.6,15.9-11,26.4-11c37.3,0.2,74.6,0.2,111.9,0
			c12.2-0.1,21.8,3.9,26.7,15.5c4.9,11.7,0.5,21.1-8.1,29.7c-55.6,55.3-110.6,111.1-166.5,166.1c-77,75.8-203.3,75.6-280.2-0.5
			C344.2,415.6,289.2,360.2,234.1,305c-10.7-10.7-13.2-19.7-8.4-30.5c5.2-11.7,15-15.1,27-14.9C271.4,259.9,290.1,259.6,308.7,259.6
			z M307.6,308.8c4.3,4.7,6.5,7.2,8.8,9.6c38.7,38.8,77.3,77.6,116.2,116.2C492.5,494,588.1,493.7,648,434
			c38.3-38.1,76.4-76.4,114.6-114.6c2.8-2.8,5.3-5.8,9.7-10.6c-16.2,0-29.8-0.6-43.3,0.3c-5.1,0.3-11.1,2.6-14.7,6.1
			c-25.1,24.4-49.6,49.4-74.5,74c-55.2,54.4-144.2,54.5-199.4,0.2c-24.9-24.5-49.5-49.5-74.4-74.1c-2.8-2.8-6.7-6-10.2-6.1
			C340.7,308.4,325.6,308.8,307.6,308.8z"/>
		<path d="M770.9,820.3c-17.5,0-35-0.4-52.5,0.1c-12.2,0.4-21.8-3.6-30.4-12.4c-26.3-27-53-53.5-79.8-80
			c-39.9-39.5-96.6-39.6-136.4-0.1c-27,26.8-54,53.6-80.6,80.8c-8,8.2-17,11.9-28.4,11.8c-36.5-0.3-73-0.3-109.5,0
			c-12.5,0.1-22.7-3.2-27.8-15.5c-5.2-12.3-0.1-21.7,8.8-30.5c55-54.7,109.7-109.8,164.7-164.5C476,533.5,602.6,532.9,680,609
			c55.5,54.7,110.3,110.2,165.6,165.2c8.8,8.7,14.3,18.2,9.2,30.5c-5,12.3-15.5,15.7-27.9,15.5C808.2,820.1,789.6,820.3,770.9,820.3
			z M772.2,771.1c-3.9-4.3-5.9-6.9-8.2-9.1c-38.7-38.8-77.3-77.7-116.2-116.2c-60.8-60.1-154.3-60.3-215.3-0.2
			c-39.3,38.7-78.1,78-117,117c-2.2,2.2-4,4.7-7.2,8.6c15.7,0,29,0.6,42.2-0.3c5.4-0.4,11.8-2.8,15.7-6.5
			c24.1-23.3,47.4-47.2,71.2-70.8c59.2-58.7,145.8-58.8,205.1-0.2c23.8,23.5,47.3,47.4,71.1,70.9c2.8,2.8,6.6,6.4,10,6.5
			C739,771.5,754.4,771.1,772.2,771.1z"/>
		<path class="st0" d="M307.6,308.8c18,0,33.1-0.4,48.2,0.3c3.5,0.2,7.4,3.4,10.2,6.1c24.9,24.6,49.4,49.6,74.4,74.1
			c55.2,54.4,144.3,54.3,199.4-0.2c24.9-24.6,49.4-49.6,74.5-74c3.6-3.5,9.7-5.8,14.7-6.1c13.5-0.8,27.1-0.3,43.3-0.3
			c-4.3,4.8-6.9,7.8-9.7,10.6C724.5,357.6,686.3,395.8,648,434c-59.9,59.7-155.5,60.1-215.4,0.6c-38.9-38.6-77.5-77.4-116.2-116.2
			C314.1,316,311.9,313.5,307.6,308.8z"/>
		<path class="st0" d="M772.2,771.1c-17.8,0-33.2,0.4-48.6-0.3c-3.5-0.2-7.2-3.7-10-6.5c-23.8-23.5-47.3-47.4-71.1-70.9
			c-59.3-58.6-145.9-58.5-205.1,0.2c-23.8,23.6-47.2,47.5-71.2,70.8c-3.8,3.7-10.3,6.1-15.7,6.5c-13.2,0.9-26.6,0.3-42.2,0.3
			c3.2-3.9,5-6.4,7.2-8.6c39-39,77.7-78.3,117-117c61.1-60.1,154.5-59.9,215.3,0.2c39,38.5,77.5,77.4,116.2,116.2
			C766.3,764.2,768.4,766.8,772.2,771.1z"/>
	</g>
</g>
</svg>
