<?xml version="1.0" encoding="utf-8"?>
<!-- Generator: Adobe Illustrator 28.2.0, SVG Export Plug-In . SVG Version: 6.00 Build 0)  -->
<svg version="1.1" id="Layer_1" xmlns="http://www.w3.org/2000/svg" xmlns:xlink="http://www.w3.org/1999/xlink" x="0px" y="0px"
	 viewBox="0 0 1080 1080" style="enable-background:new 0 0 1080 1080;" xml:space="preserve">
<style type="text/css">
	.st0{fill: #949AA7;}
</style>
<g>
	<circle class="st0" cx="540" cy="540" r="540"/>
	<path d="M599.9,790.7c0,19.2,0,37,0,54.9c0,17.9,0,35.7,0,54.5c-22,0-43.5,0-66.4,0c0-17.7,0-35.5,0-53.2c0-17.8,0-35.7,0-54.4
		c-17.6,0-34.4,0-52.5,0c0,35.4,0,71,0,107.6c-22.5,0-43.9,0-66.4,0c0-36,0-72,0-109.7c-45.3,0-89.6,0-134.7,0
		c4.2-25.8,7.9-49.8,12.3-73.7c0.5-2.5,5.5-5.8,8.5-6c13.3-0.7,26.6,0.3,39.9-0.5c18.3-1.1,25.9-9.4,25.9-27.7
		c0.1-57.1,0.1-114.1,0.1-171.2c0-38.1,0-76.1,0-114.2c0-23-12.4-36-35.5-37.1c-8.4-0.4-16.7-0.3-25.1-0.4c-8.3-0.1-16.5,0-25.4,0
		c0-23.6,0-46.2,0-70.3c43.8,0,87.7,0,133.2,0c0-37.2,0-73,0-109.4c22.8,0,44,0,66.7,0c0,35.2,0,70.3,0,105.7c18.2,0,34.8,0,52.8,0
		c0-35.5,0-70.2,0-105.6c22.5,0,43.7,0,66.4,0c0,35.7,0,71.6,0,106.6c24.2,4.9,46.9,8.9,69.3,14.2c10.3,2.4,20.1,6.8,29.8,11.2
		c81.4,36.2,77,145.9,32.4,182.7c-7.5,6.2-15.5,11.9-24,18.4c8.6,3.1,16.8,5.8,24.8,8.9c42,16.7,65.3,48,67.9,92.7
		c1.2,21.4-0.4,43.6-5.1,64.4c-12.6,56.2-52.7,85.3-105.8,98.1c-25,6-50.9,8.2-76.4,12.1C608.8,790,605,790.2,599.9,790.7z
		 M482.5,713.4c36.2-2.6,71.2-3.7,105.6-8.2c17.3-2.3,35.1-8.4,50.2-16.9c40.9-23.2,40.7-78.7,0.2-102.9
		c-9.6-5.8-20.5-11.1-31.4-12.6c-28.8-4.2-58-6.5-87.1-8.8c-12.3-1-24.8-0.2-37.6-0.2C482.5,613.8,482.5,661.6,482.5,713.4z
		 M482.6,495.3c24.1,0,47.8,1.8,71-0.6c17.8-1.8,35.6-7.3,52.3-14c17-6.8,27.7-20.7,30.6-39.7c5-33.4-11.6-57.9-47.2-68.7
		c-34.8-10.6-70.5-8.3-106.6-7.5C482.6,409.2,482.6,452.7,482.6,495.3z"/>
</g>
</svg>
