<?xml version="1.0" encoding="utf-8"?>
<!-- Generator: Adobe Illustrator 28.2.0, SVG Export Plug-In . SVG Version: 6.00 Build 0)  -->
<svg version="1.1" id="Layer_1" xmlns="http://www.w3.org/2000/svg" xmlns:xlink="http://www.w3.org/1999/xlink" x="0px" y="0px"
	 viewBox="0 0 1080 1080" style="enable-background:new 0 0 1080 1080;" xml:space="preserve">
<style type="text/css">
	.st0{fill:#949AA7;}
</style>
<g>
	<circle class="st0" cx="540" cy="540" r="540"/>
	<path d="M367.8,687.9c2.9-2.3,6-4.5,8.8-7c31.9-27.8,63.8-55.5,95.5-83.5c5.8-5.1,11.7-9.1,18.6-3c6.9,6.1,4,12.5-0.3,19
		c-34.4,51.3-68.6,102.8-103.2,154c-15.1,22.5-39,31.3-62.9,24.1c-23.7-7.2-38.3-28-38.3-55.2c-0.1-131.1-0.1-262.3,0-393.4
		c0-34.3,22.5-55.8,56.7-57c23.5-0.8,40.3,8.3,55.1,26.1c101.2,121.5,202.9,242.5,304.5,363.7c2.9,3.4,5.9,6.7,9.1,10.2
		c4.8-5.8,6.6-273.5,2.3-294.3c-4.2,2.6-8,4.5-11.1,7.1c-29.4,25.2-58.6,50.6-87.9,76c-2.7,2.3-5.5,4.6-8.1,7
		c-5.5,5-11.3,7.9-17.8,1.9c-6-5.6-3.8-11.3,0.2-17.1c9.6-14.1,19.1-28.3,28.6-42.4c25.2-37.4,50.4-74.8,75.7-112.2
		c14.6-21.6,38.4-30.4,62.2-23.2c23,7,38.4,27.8,38.4,53.1c0.1,132.2,0.1,264.4,0,396.6c0,32.5-23.3,54.7-56,55.9
		c-23.2,0.9-40.7-7.3-55.6-25.2C581.5,648,480.2,527.5,379.1,406.9c-1.1-1.4-2-3-3.4-4.1c-2.6-2-5.5-3.8-8.3-5.6
		c-1,3.1-2.9,6.2-3,9.4c-0.4,11.7-0.1,23.5-0.1,35.2c0,77.5,0,155,0,232.4c0,4.1,0.4,8.2,0.5,12.3
		C365.8,687,366.8,687.5,367.8,687.9z"/>
</g>
</svg>
