<?xml version="1.0" encoding="utf-8"?>
<!-- Generator: Adobe Illustrator 28.2.0, SVG Export Plug-In . SVG Version: 6.00 Build 0)  -->
<svg version="1.1" id="Layer_1" xmlns="http://www.w3.org/2000/svg" xmlns:xlink="http://www.w3.org/1999/xlink" x="0px" y="0px"
	 viewBox="0 0 1080 1080" style="enable-background:new 0 0 1080 1080;" xml:space="preserve">
<style type="text/css">
	.st0{display:none;}
	.st1{display:inline;fill:#949AA7s;}
	.st2{display:inline;}
	.st3{display:none;fill:#949AA7s;}
	.st4{fill:#949AA7;}
	.st5{display:inline;fill:#E3A062;}
</style>
<g class="st0">
	<circle class="st1" cx="540" cy="540" r="540"/>
	<path class="st2" d="M367.8,687.9c2.9-2.3,6-4.5,8.8-7c31.9-27.8,63.8-55.5,95.5-83.5c5.8-5.1,11.7-9.1,18.6-3
		c6.9,6.1,4,12.5-0.3,19c-34.4,51.3-68.6,102.8-103.2,154c-15.1,22.5-39,31.3-62.9,24.1c-23.7-7.2-38.3-28-38.3-55.2
		c-0.1-131.1-0.1-262.3,0-393.4c0-34.3,22.5-55.8,56.7-57c23.5-0.8,40.3,8.3,55.1,26.1c101.2,121.5,202.9,242.5,304.5,363.7
		c2.9,3.4,5.9,6.7,9.1,10.2c4.8-5.8,6.6-273.5,2.3-294.3c-4.2,2.6-8,4.5-11.1,7.1c-29.4,25.2-58.6,50.6-87.9,76
		c-2.7,2.3-5.5,4.6-8.1,7c-5.5,5-11.3,7.9-17.8,1.9c-6-5.6-3.8-11.3,0.2-17.1c9.6-14.1,19.1-28.3,28.6-42.4
		c25.2-37.4,50.4-74.8,75.7-112.2c14.6-21.6,38.4-30.4,62.2-23.2c23,7,38.4,27.8,38.4,53.1c0.1,132.2,0.1,264.4,0,396.6
		c0,32.5-23.3,54.7-56,55.9c-23.2,0.9-40.7-7.3-55.6-25.2C581.5,648,480.2,527.5,379.1,406.9c-1.1-1.4-2-3-3.4-4.1
		c-2.6-2-5.5-3.8-8.3-5.6c-1,3.1-2.9,6.2-3,9.4c-0.4,11.7-0.1,23.5-0.1,35.2c0,77.5,0,155,0,232.4c0,4.1,0.4,8.2,0.5,12.3
		C365.8,687,366.8,687.5,367.8,687.9z"/>
</g>
<circle class="st3" cx="540" cy="540" r="535"/>
<g>
	<circle class="st4" cx="540" cy="540" r="540"/>
	<g>
		<path d="M709.5,534.1c-5.2,4.2-9.7,9.9-15.5,12c-44.4,15.6-89.3,29.8-133.5,45.8c-15.1,5.4-28.2,5.2-43.2-0.1
			c-42.5-15.2-85.5-29.1-128.4-43.4c-20.2-6.7-22.8-13-12.7-31.4c45.3-82.1,90.7-164.2,135.8-246.5c6.2-11.3,13.6-20.3,27.5-20
			c13.3,0.3,20.5,9.1,26.4,20c45.3,82.6,90.8,165,136.1,247.5C704.4,522.3,706.1,526.8,709.5,534.1z"/>
		<path d="M533.8,829.5c-3.5-2.5-12.2-5.8-16.7-12.2c-39.7-55.9-78.8-112.2-117.6-168.6c-2.3-3.3-3.3-11-1.3-12.9
			c2.9-2.8,9.7-4,13.8-2.7c35.5,11.3,70.9,22.8,106,35.2c14.6,5.2,28.1,5,42.8-0.2c34-12,68.4-23.2,102.8-34.1
			c4.9-1.6,11,0.5,16.6,0.9c-1.2,5.8-0.7,12.6-3.7,17.1c-37.3,54.3-75.1,108.3-112.7,162.4C557.5,823.2,550.1,829.5,533.8,829.5z"/>
	</g>
</g>
<g class="st0">
	<circle class="st5" cx="540" cy="540" r="540"/>
	<g class="st2">
		<g>
			<g>
				<g>
					<polygon id="XMLID_00000052819750410772451440000010344963869600618384_" class="st4" points="792.7,644.3 877.6,535.2 
						792.7,426.2 707.8,535.2 					"/>
					<polygon id="XMLID_00000163788169577219678310000008506283039583612036_" class="st4" points="287.3,426.2 202.4,535.2 
						287.3,644.3 372.2,535.2 					"/>
					<g>
						<polygon id="XMLID_00000106125988675160269370000013783190566351468207_" class="st4" points="410.5,533.4 540,367.1 
							669.5,533.4 754.4,424.4 540,149 325.6,424.4 						"/>
						<polygon id="XMLID_00000143597177271213006620000006696737215256518074_" class="st4" points="669.5,533.4 540,699.7 
							410.5,533.4 325.6,642.4 540,917.8 754.4,642.4 						"/>
					</g>
				</g>
			</g>
		</g>
		<polygon class="st4" points="540,149 540,367.1 669.5,533.4 754.4,424.4 		"/>
		<polygon class="st4" points="540,699.7 669.5,533.4 754.4,642.4 540,917.8 		"/>
		<polygon class="st4" points="792.7,426.2 792.7,644.3 877.6,535.2 		"/>
		<polygon class="st4" points="287.3,426.2 287.3,644.3 372.2,535.2 		"/>
	</g>
</g>
<g class="st0">
	<circle class="st1" cx="540" cy="540" r="540"/>
	<path class="st2" d="M599.9,790.7c0,19.2,0,37,0,54.9c0,17.9,0,35.7,0,54.5c-22,0-43.5,0-66.4,0c0-17.7,0-35.5,0-53.2
		c0-17.8,0-35.7,0-54.4c-17.6,0-34.4,0-52.5,0c0,35.4,0,71,0,107.6c-22.5,0-43.9,0-66.4,0c0-36,0-72,0-109.7c-45.3,0-89.6,0-134.7,0
		c4.2-25.8,7.9-49.8,12.3-73.7c0.5-2.5,5.5-5.8,8.5-6c13.3-0.7,26.6,0.3,39.9-0.5c18.3-1.1,25.9-9.4,25.9-27.7
		c0.1-57.1,0.1-114.1,0.1-171.2c0-38.1,0-76.1,0-114.2c0-23-12.4-36-35.5-37.1c-8.4-0.4-16.7-0.3-25.1-0.4c-8.3-0.1-16.5,0-25.4,0
		c0-23.6,0-46.2,0-70.3c43.8,0,87.7,0,133.2,0c0-37.2,0-73,0-109.4c22.8,0,44,0,66.7,0c0,35.2,0,70.3,0,105.7c18.2,0,34.8,0,52.8,0
		c0-35.5,0-70.2,0-105.6c22.5,0,43.7,0,66.4,0c0,35.7,0,71.6,0,106.6c24.2,4.9,46.9,8.9,69.3,14.2c10.3,2.4,20.1,6.8,29.8,11.2
		c81.4,36.2,77,145.9,32.4,182.7c-7.5,6.2-15.5,11.9-24,18.4c8.6,3.1,16.8,5.8,24.8,8.9c42,16.7,65.3,48,67.9,92.7
		c1.2,21.4-0.4,43.6-5.1,64.4c-12.6,56.2-52.7,85.3-105.8,98.1c-25,6-50.9,8.2-76.4,12.1C608.8,790,605,790.2,599.9,790.7z
		 M482.5,713.4c36.2-2.6,71.2-3.7,105.6-8.2c17.3-2.3,35.1-8.4,50.2-16.9c40.9-23.2,40.7-78.7,0.2-102.9
		c-9.6-5.8-20.5-11.1-31.4-12.6c-28.8-4.2-58-6.5-87.1-8.8c-12.3-1-24.8-0.2-37.6-0.2C482.5,613.8,482.5,661.6,482.5,713.4z
		 M482.6,495.3c24.1,0,47.8,1.8,71-0.6c17.8-1.8,35.6-7.3,52.3-14c17-6.8,27.7-20.7,30.6-39.7c5-33.4-11.6-57.9-47.2-68.7
		c-34.8-10.6-70.5-8.3-106.6-7.5C482.6,409.2,482.6,452.7,482.6,495.3z"/>
</g>
<g class="st0">
	<circle class="st1" cx="540" cy="540" r="540"/>
	<path class="st2" d="M540.2,281.7c67.7,0,135.4-0.1,203,0c73.6,0.1,114,69.5,77.8,133.8c-80.8,143.2-161.8,286.3-242.5,429.5
		c-8.7,15.4-19.8,26.7-38.3,26.7c-18.4,0-29.7-11.2-38.4-26.6c-81-143.9-162.3-287.7-243.4-431.5c-19.7-35-16.4-73.6,8.5-102
		c17.7-20.1,40.3-29.7,67-29.7C402.6,281.6,471.4,281.7,540.2,281.7z M571.3,732.7c3.3-5.4,4.8-7.9,6.2-10.4
		c63.6-112.6,127.2-225.2,190.8-337.8c12.9-22.8,1.6-41.7-24.9-41.7c-54.1-0.1-108.3,0-162.4,0c-3.2,0-6.3,0.4-9.8,0.6
		C571.3,472.6,571.3,601.1,571.3,732.7z M509.3,343.9c-1.8-0.5-2.5-0.9-3.1-0.9c-58.1-0.1-116.3-0.4-174.4,0
		c-20.9,0.1-31.5,20.7-20.9,39.4c64.3,113.9,128.6,227.7,193,341.5c1.2,2.2,2.9,4,5.5,7.5C509.3,600.9,509.3,472.6,509.3,343.9z"/>
</g>
<g class="st0">
	<circle class="st1" cx="540" cy="540" r="540"/>
	<g class="st2">
		<path d="M308.7,259.6c18.6,0,37.3,0.1,55.9-0.1c10.1-0.1,18.2,3.3,25.4,10.6c26.7,27.1,53.7,53.9,80.7,80.8
			c41,40.9,97,41.1,138.1,0.4c27-26.8,54-53.7,80.7-80.8c7.5-7.6,15.9-11,26.4-11c37.3,0.2,74.6,0.2,111.9,0
			c12.2-0.1,21.8,3.9,26.7,15.5c4.9,11.7,0.5,21.1-8.1,29.7c-55.6,55.3-110.6,111.1-166.5,166.1c-77,75.8-203.3,75.6-280.2-0.5
			C344.2,415.6,289.2,360.2,234.1,305c-10.7-10.7-13.2-19.7-8.4-30.5c5.2-11.7,15-15.1,27-14.9C271.4,259.9,290.1,259.6,308.7,259.6
			z M307.6,308.8c4.3,4.7,6.5,7.2,8.8,9.6c38.7,38.8,77.3,77.6,116.2,116.2C492.5,494,588.1,493.7,648,434
			c38.3-38.1,76.4-76.4,114.6-114.6c2.8-2.8,5.3-5.8,9.7-10.6c-16.2,0-29.8-0.6-43.3,0.3c-5.1,0.3-11.1,2.6-14.7,6.1
			c-25.1,24.4-49.6,49.4-74.5,74c-55.2,54.4-144.2,54.5-199.4,0.2c-24.9-24.5-49.5-49.5-74.4-74.1c-2.8-2.8-6.7-6-10.2-6.1
			C340.7,308.4,325.6,308.8,307.6,308.8z"/>
		<path d="M770.9,820.3c-17.5,0-35-0.4-52.5,0.1c-12.2,0.4-21.8-3.6-30.4-12.4c-26.3-27-53-53.5-79.8-80
			c-39.9-39.5-96.6-39.6-136.4-0.1c-27,26.8-54,53.6-80.6,80.8c-8,8.2-17,11.9-28.4,11.8c-36.5-0.3-73-0.3-109.5,0
			c-12.5,0.1-22.7-3.2-27.8-15.5c-5.2-12.3-0.1-21.7,8.8-30.5c55-54.7,109.7-109.8,164.7-164.5C476,533.5,602.6,532.9,680,609
			c55.5,54.7,110.3,110.2,165.6,165.2c8.8,8.7,14.3,18.2,9.2,30.5c-5,12.3-15.5,15.7-27.9,15.5C808.2,820.1,789.6,820.3,770.9,820.3
			z M772.2,771.1c-3.9-4.3-5.9-6.9-8.2-9.1c-38.7-38.8-77.3-77.7-116.2-116.2c-60.8-60.1-154.3-60.3-215.3-0.2
			c-39.3,38.7-78.1,78-117,117c-2.2,2.2-4,4.7-7.2,8.6c15.7,0,29,0.6,42.2-0.3c5.4-0.4,11.8-2.8,15.7-6.5
			c24.1-23.3,47.4-47.2,71.2-70.8c59.2-58.7,145.8-58.8,205.1-0.2c23.8,23.5,47.3,47.4,71.1,70.9c2.8,2.8,6.6,6.4,10,6.5
			C739,771.5,754.4,771.1,772.2,771.1z"/>
		<path class="st4" d="M307.6,308.8c18,0,33.1-0.4,48.2,0.3c3.5,0.2,7.4,3.4,10.2,6.1c24.9,24.6,49.4,49.6,74.4,74.1
			c55.2,54.4,144.3,54.3,199.4-0.2c24.9-24.6,49.4-49.6,74.5-74c3.6-3.5,9.7-5.8,14.7-6.1c13.5-0.8,27.1-0.3,43.3-0.3
			c-4.3,4.8-6.9,7.8-9.7,10.6C724.5,357.6,686.3,395.8,648,434c-59.9,59.7-155.5,60.1-215.4,0.6c-38.9-38.6-77.5-77.4-116.2-116.2
			C314.1,316,311.9,313.5,307.6,308.8z"/>
		<path class="st4" d="M772.2,771.1c-17.8,0-33.2,0.4-48.6-0.3c-3.5-0.2-7.2-3.7-10-6.5c-23.8-23.5-47.3-47.4-71.1-70.9
			c-59.3-58.6-145.9-58.5-205.1,0.2c-23.8,23.6-47.2,47.5-71.2,70.8c-3.8,3.7-10.3,6.1-15.7,6.5c-13.2,0.9-26.6,0.3-42.2,0.3
			c3.2-3.9,5-6.4,7.2-8.6c39-39,77.7-78.3,117-117c61.1-60.1,154.5-59.9,215.3,0.2c39,38.5,77.5,77.4,116.2,116.2
			C766.3,764.2,768.4,766.8,772.2,771.1z"/>
	</g>
</g>
</svg>
