<?xml version="1.0" encoding="utf-8"?>
<!-- Generator: Adobe Illustrator 28.2.0, SVG Export Plug-In . SVG Version: 6.00 Build 0)  -->
<svg version="1.1" id="Layer_1" xmlns="http://www.w3.org/2000/svg" xmlns:xlink="http://www.w3.org/1999/xlink" x="0px" y="0px"
	 viewBox="0 0 1080 1080" style="enable-background:new 0 0 1080 1080;" xml:space="preserve">
<style type="text/css">
	.st0{fill:#949AA7;}
</style>
<g>
	<circle class="st0" cx="540" cy="540" r="540"/>
	<path d="M540.2,281.7c67.7,0,135.4-0.1,203,0c73.6,0.1,114,69.5,77.8,133.8c-80.8,143.2-161.8,286.3-242.5,429.5
		c-8.7,15.4-19.8,26.7-38.3,26.7c-18.4,0-29.7-11.2-38.4-26.6c-81-143.9-162.3-287.7-243.4-431.5c-19.7-35-16.4-73.6,8.5-102
		c17.7-20.1,40.3-29.7,67-29.7C402.6,281.6,471.4,281.7,540.2,281.7z M571.3,732.7c3.3-5.4,4.8-7.9,6.2-10.4
		c63.6-112.6,127.2-225.2,190.8-337.8c12.9-22.8,1.6-41.7-24.9-41.7c-54.1-0.1-108.3,0-162.4,0c-3.2,0-6.3,0.4-9.8,0.6
		C571.3,472.6,571.3,601.1,571.3,732.7z M509.3,343.9c-1.8-0.5-2.5-0.9-3.1-0.9c-58.1-0.1-116.3-0.4-174.4,0
		c-20.9,0.1-31.5,20.7-20.9,39.4c64.3,113.9,128.6,227.7,193,341.5c1.2,2.2,2.9,4,5.5,7.5C509.3,600.9,509.3,472.6,509.3,343.9z"/>
</g>
</svg>
